<?xml version="1.0" encoding="UTF-8" standalone="no" ?>
<!DOCTYPE svg PUBLIC "-//W3C//DTD SVG 1.1//EN" "http://www.w3.org/Graphics/SVG/1.1/DTD/svg11.dtd">
<svg xmlns="http://www.w3.org/2000/svg" xmlns:xlink="http://www.w3.org/1999/xlink" version="1.1" width="640" height="640" viewBox="0 0 640 640" xml:space="preserve">
<desc>Created with Fabric.js 5.3.0</desc>
<defs>
</defs>
<g transform="matrix(0.7881616588 0 0 0.7881616588 320 118.2055508353)" id="tX7WD-k3AEOJZhBkck7MM"  >
<path style="stroke: rgb(153,143,60); stroke-width: 0; stroke-dasharray: none; stroke-linecap: butt; stroke-dashoffset: 0; stroke-linejoin: miter; stroke-miterlimit: 4; fill: rgb(0,0,0); fill-rule: nonzero; opacity: 1;"  transform=" translate(0, 0)" d="M -62.62231 -62.62231 L 62.62231 -62.62231 L 62.62231 62.62231 L -62.62231 62.62231 z" stroke-linecap="round" />
</g>
<g transform="matrix(1.1507160219 0 0 0.3062196383 320 103.8485711719)" id="tVcJSyDNZWJ_HuWyjmxeX"  >
<path style="stroke: rgb(191,224,11); stroke-width: 0; stroke-dasharray: none; stroke-linecap: butt; stroke-dashoffset: 0; stroke-linejoin: miter; stroke-miterlimit: 4; fill: rgb(0,0,0); fill-rule: nonzero; opacity: 1;"  transform=" translate(0, 0)" d="M -62.62231 -62.62231 L 62.62231 -62.62231 L 62.62231 62.62231 L -62.62231 62.62231 z" stroke-linecap="round" />
</g>
<g transform="matrix(0.4656256914 0 0 0.2751032258 320 68.8490477392)" id="7zB9TwaAyhnKW5ibItAjS"  >
<path style="stroke: rgb(232,45,193); stroke-width: 0; stroke-dasharray: none; stroke-linecap: butt; stroke-dashoffset: 0; stroke-linejoin: miter; stroke-miterlimit: 4; fill: rgb(0,0,0); fill-rule: nonzero; opacity: 1;"  transform=" translate(0, 0)" d="M -62.62231 -62.62231 L 62.62231 -62.62231 L 62.62231 62.62231 L -62.62231 62.62231 z" stroke-linecap="round" />
</g>
<g transform="matrix(0.5218833246 0 0 0.7881616588 320 153.205074268)" id="Fp8bt3wGORGJAHSaKy7JB"  >
<path style="stroke: rgb(33,37,243); stroke-width: 0; stroke-dasharray: none; stroke-linecap: butt; stroke-dashoffset: 0; stroke-linejoin: miter; stroke-miterlimit: 4; fill: rgb(0,0,0); fill-rule: nonzero; opacity: 1;"  transform=" translate(0, 0)" d="M -62.62231 -62.62231 L 62.62231 -62.62231 L 62.62231 62.62231 L -62.62231 62.62231 z" stroke-linecap="round" />
</g>
<g transform="matrix(1.4896255352 0 0 0.2352087999 320 208.9217883287)" id="Qu0KXxcv3xzZNlPuTkb4R"  >
<path style="stroke: rgb(134,176,245); stroke-width: 0; stroke-dasharray: none; stroke-linecap: butt; stroke-dashoffset: 0; stroke-linejoin: miter; stroke-miterlimit: 4; fill: rgb(0,0,0); fill-rule: nonzero; opacity: 1;"  transform=" translate(0, 0)" d="M -62.62231 -62.62231 L 62.62231 -62.62231 L 62.62231 62.62231 L -62.62231 62.62231 z" stroke-linecap="round" />
</g>
<g transform="matrix(0.8965652689 0 0 0.2114161401 320 202.5615773641)" id="pdDEDOXhzBPFBJUUKBMVM"  >
<path style="stroke: rgb(178,48,245); stroke-width: 0; stroke-dasharray: none; stroke-linecap: butt; stroke-dashoffset: 0; stroke-linejoin: miter; stroke-miterlimit: 4; fill: rgb(0,0,0); fill-rule: nonzero; opacity: 1;"  transform=" translate(0, 0)" d="M -62.62231 -62.62231 L 62.62231 -62.62231 L 62.62231 62.62231 L -62.62231 62.62231 z" stroke-linecap="round" />
</g>
<g transform="matrix(0.7234120963 0 0 1.1100873135 320 278.4380193107)" id="6G1ZgOG_boBd1xHy9arBj"  >
<path style="stroke: rgb(190,220,215); stroke-width: 0; stroke-dasharray: none; stroke-linecap: butt; stroke-dashoffset: 0; stroke-linejoin: miter; stroke-miterlimit: 4; fill: rgb(0,0,0); fill-rule: nonzero; opacity: 1;"  transform=" translate(0, 0)" d="M -62.62231 -62.62231 L 62.62231 -62.62231 L 62.62231 62.62231 L -62.62231 62.62231 z" stroke-linecap="round" />
</g>
<g transform="matrix(1.1997023512 0 0 0.5035699775 316.9323629387 240.4565031592)" id="jblHcm8rZwd2UfB6I2xqu"  >
<path style="stroke: rgb(97,211,174); stroke-width: 0; stroke-dasharray: none; stroke-linecap: butt; stroke-dashoffset: 0; stroke-linejoin: miter; stroke-miterlimit: 4; fill: rgb(0,0,0); fill-rule: nonzero; opacity: 1;"  transform=" translate(0, 0)" d="M -62.62231 -62.62231 L 62.62231 -62.62231 L 62.62231 62.62231 L -62.62231 62.62231 z" stroke-linecap="round" />
</g>
<g transform="matrix(0.9002009208 0 0 0.4237763576 319.7723270804 282.9416136011)" id="9XjemcYZgOElUeOpMrcsU"  >
<path style="stroke: rgb(210,254,69); stroke-width: 0; stroke-dasharray: none; stroke-linecap: butt; stroke-dashoffset: 0; stroke-linejoin: miter; stroke-miterlimit: 4; fill: rgb(0,0,0); fill-rule: nonzero; opacity: 1;"  transform=" translate(0, 0)" d="M -62.62231 -62.62231 L 62.62231 -62.62231 L 62.62231 62.62231 L -62.62231 62.62231 z" stroke-linecap="round" />
</g>
<g transform="matrix(1.2762035492 0 0 0.4903085298 320 347.9542502927)" id="eKNyet-SHOmRWeQNFmZKN"  >
<path style="stroke: rgb(213,37,217); stroke-width: 0; stroke-dasharray: none; stroke-linecap: butt; stroke-dashoffset: 0; stroke-linejoin: miter; stroke-miterlimit: 4; fill: rgb(0,0,0); fill-rule: nonzero; opacity: 1;"  transform=" translate(0, 0)" d="M -46.96673 -46.96673 L 46.96673 -46.96673 L 46.96673 46.96673 L -46.96673 46.96673 z" stroke-linecap="round" />
</g>
<g transform="matrix(0.3709766241 0 0 0.6569635151 264.0870482226 400.1611183755)" id="Y2n2mphfiURMuoGeV8cIx"  >
<path style="stroke: rgb(215,104,138); stroke-width: 0; stroke-dasharray: none; stroke-linecap: butt; stroke-dashoffset: 0; stroke-linejoin: miter; stroke-miterlimit: 4; fill: rgb(0,0,0); fill-rule: nonzero; opacity: 1;"  transform=" translate(0, 0)" d="M -62.62231 -62.62231 L 62.62231 -62.62231 L 62.62231 62.62231 L -62.62231 62.62231 z" stroke-linecap="round" />
</g>
<g transform="matrix(0.2212643678 0 0 0.2212643678 244.8042313571 449.693864869)" id="Cuk8xXSWLhEC1TSsGg8Kg"  >
<path style="stroke: rgb(216,38,88); stroke-width: 0; stroke-dasharray: none; stroke-linecap: butt; stroke-dashoffset: 0; stroke-linejoin: miter; stroke-miterlimit: 4; fill: rgb(0,0,0); fill-rule: nonzero; opacity: 1;"  transform=" translate(0, 0)" d="M -62.62231 -62.62231 L 62.62231 -62.62231 L 62.62231 62.62231 L -62.62231 62.62231 z" stroke-linecap="round" />
</g>
<g transform="matrix(0.2603972596 0 0 0.6949798498 261.1109090594 497.532511007)" id="xwMH3a7ytaMsSB8bgmpUy"  >
<path style="stroke: rgb(115,20,219); stroke-width: 0; stroke-dasharray: none; stroke-linecap: butt; stroke-dashoffset: 0; stroke-linejoin: miter; stroke-miterlimit: 4; fill: rgb(0,0,0); fill-rule: nonzero; opacity: 1;"  transform=" translate(0, 0)" d="M -62.62231 -62.62231 L 62.62231 -62.62231 L 62.62231 62.62231 L -62.62231 62.62231 z" stroke-linecap="round" />
</g>
<g transform="matrix(0.7157226675 0 0 0.2137292397 219.2668420367 549.4379725825)" id="dB4wAmEx6nbri4VDnvaAZ"  >
<path style="stroke: rgb(87,164,3); stroke-width: 0; stroke-dasharray: none; stroke-linecap: butt; stroke-dashoffset: 0; stroke-linejoin: miter; stroke-miterlimit: 4; fill: rgb(0,0,0); fill-rule: nonzero; opacity: 1;"  transform=" translate(0, 0)" d="M -62.62231 -62.62231 L 62.62231 -62.62231 L 62.62231 62.62231 L -62.62231 62.62231 z" stroke-linecap="round" />
</g>
<g transform="matrix(0.39 0 0 0.1928372656 230.6364597256 533.5788773529)" id="38jci4ry9X1Oo0HTfI7E4"  >
<path style="stroke: rgb(117,102,118); stroke-width: 0; stroke-dasharray: none; stroke-linecap: butt; stroke-dashoffset: 0; stroke-linejoin: miter; stroke-miterlimit: 4; fill: rgb(0,0,0); fill-rule: nonzero; opacity: 1;"  transform=" translate(0, 0)" d="M -62.62231 -62.62231 L 62.62231 -62.62231 L 62.62231 62.62231 L -62.62231 62.62231 z" stroke-linecap="round" />
</g>
<g transform="matrix(1 0 0 1 349.1585578613 463.5499519968)" id="-JHLIeOF1IcWvND5S39BF"  >
<path style="stroke: rgb(117,102,118); stroke-width: 0; stroke-dasharray: none; stroke-linecap: butt; stroke-dashoffset: 0; stroke-linejoin: miter; stroke-miterlimit: 4; fill: rgb(0,0,0); fill-rule: nonzero; opacity: 1;"  transform=" translate(-56.4359148935, -101.9008242019)" d="M 66.409 0 L 112.87183 0 L 112.87183 82.28114 L 84.21368000000001 82.28114 L 84.21368000000001 94.99072 L 102.97096000000002 94.99072 L 102.97096000000002 182.03321 L 89.64041000000002 182.03321 L 89.64041000000002 203.80165 L 1.4210854715202004e-14 203.80165 L 1.4210854715202004e-14 177.03321 L 31.767120000000013 177.03321 L 31.767120000000013 162.48242 L 70.35759000000002 162.48242 L 70.35759000000002 104.52940999999998 L 56.501500000000014 104.52940999999998 L 56.501500000000014 76.81723999999998 L 66.40899000000002 76.81723999999998 z" stroke-linecap="round" />
</g>
<g transform="matrix(0.2544289889 0 0 0.8292928825 423.5274036711 233.8540236323)" id="G8Eyo-v7Xjaa3Z8nWCIbu"  >
<path style="stroke: rgb(122,184,172); stroke-width: 0; stroke-dasharray: none; stroke-linecap: butt; stroke-dashoffset: 0; stroke-linejoin: miter; stroke-miterlimit: 4; fill: rgb(0,0,0); fill-rule: nonzero; opacity: 1;"  transform=" translate(0, 0)" d="M -62.62231 -62.62231 L 62.62231 -62.62231 L 62.62231 62.62231 L -62.62231 62.62231 z" stroke-linecap="round" />
</g>
<g transform="matrix(0.2561010284 0 0 0.2561010284 437.5650414595 291.7862589359)" id="e86YKHG-3y7pzWSGosEDI"  >
<path style="stroke: rgb(253,84,12); stroke-width: 0; stroke-dasharray: none; stroke-linecap: butt; stroke-dashoffset: 0; stroke-linejoin: miter; stroke-miterlimit: 4; fill: rgb(0,0,0); fill-rule: nonzero; opacity: 1;"  transform=" translate(0, 0)" d="M -62.62231 -62.62231 L 62.62231 -62.62231 L 62.62231 62.62231 L -62.62231 62.62231 z" stroke-linecap="round" />
</g>
<g transform="matrix(-0.1815922565 0 -0.0437500327 0.5356738541 431.9018865486 337.4373052391)" id="-I2Io-L1aRsvBa7otapNp"  >
<path style="stroke: rgb(192,44,62); stroke-width: 0; stroke-dasharray: none; stroke-linecap: butt; stroke-dashoffset: 0; stroke-linejoin: miter; stroke-miterlimit: 4; fill: rgb(0,0,0); fill-rule: nonzero; opacity: 1;"  transform=" translate(0, 0)" d="M -62.62231 -62.62231 L 62.62231 -62.62231 L 62.62231 62.62231 L -62.62231 62.62231 z" stroke-linecap="round" />
</g>
<g transform="matrix(-0.3162038717 0 -0.0258252846 0.3162038717 430.7115813404 377.8219621003)" id="6EUU0Mv827xU0uYvSRTZd"  >
<path style="stroke: rgb(111,242,253); stroke-width: 0; stroke-dasharray: none; stroke-linecap: butt; stroke-dashoffset: 0; stroke-linejoin: miter; stroke-miterlimit: 4; fill: rgb(0,0,0); fill-rule: nonzero; opacity: 1;"  transform=" translate(0, 0)" d="M -62.62231 -62.62231 L 62.62231 -62.62231 L 62.62231 62.62231 L -62.62231 62.62231 z" stroke-linecap="round" />
</g>
<g transform="matrix(-1 0 0 1 206.2137588256 291.2725887265)" id="78oUT45LNGQsSj8gqz9Pf"  >
<path style="stroke: rgb(111,242,253); stroke-width: 0; stroke-dasharray: none; stroke-linecap: butt; stroke-dashoffset: 0; stroke-linejoin: miter; stroke-miterlimit: 4; fill: rgb(0,0,0); fill-rule: nonzero; opacity: 1;"  transform=" translate(-26.7678814155, -108.35079378)" d="M 0 0 L 31.86586 0 L 31.86586 93.82683 L 46.008210000000005 93.82683 L 46.008210000000005 125.90211 L 26.544540000000005 125.90211 L 38.879070000000006 177.09875 L 50.30129000000001 177.09875 L 53.53577000000001 216.70157999999998 L 13.93294000000001 216.70157999999998 L 10.69846000000001 177.09875 L 16.13562000000001 177.09875 L 2.8538400000000106 121.97038 L 13.932930000000011 121.97038 L 13.932930000000011 103.86447000000001 L 1.0658141036401503e-14 103.86447000000001 z" stroke-linecap="round" />
</g>
<g transform="matrix(0.131330615 0 0 0.131330615 292.0656703619 131.4297772157)" id="ZgycBiOPhQvvmg4Phh1z7"  >
<path style="stroke: rgb(61,116,137); stroke-width: 0; stroke-dasharray: none; stroke-linecap: butt; stroke-dashoffset: 0; stroke-linejoin: miter; stroke-miterlimit: 4; fill: rgb(255,255,255); fill-rule: nonzero; opacity: 1;"  transform=" translate(0, 0)" d="M -62.62231 -62.62231 L 62.62231 -62.62231 L 62.62231 62.62231 L -62.62231 62.62231 z" stroke-linecap="round" />
</g>
<g transform="matrix(0.131330615 0 0 0.131330615 331.0656703619 132.4297772157)" id="MFwcBzMB9jptu21kn8hsd"  >
<path style="stroke: rgb(61,116,137); stroke-width: 0; stroke-dasharray: none; stroke-linecap: butt; stroke-dashoffset: 0; stroke-linejoin: miter; stroke-miterlimit: 4; fill: rgb(255,255,255); fill-rule: nonzero; opacity: 1;"  transform=" translate(0, 0)" d="M -62.62231 -62.62231 L 62.62231 -62.62231 L 62.62231 62.62231 L -62.62231 62.62231 z" stroke-linecap="round" />
</g>
</svg>